<svg width="90" height="20" viewBox="0 0 90 20" fill="none" xmlns="http://www.w3.org/2000/svg">
<path d="M5.02441 9.62695C5.02441 9.2806 4.89225 9.00716 4.62793 8.80664C4.36361 8.60156 4.0013 8.49902 3.54102 8.49902C3.0944 8.49902 2.7207 8.61523 2.41992 8.84766C2.1237 9.08008 1.97559 9.35352 1.97559 9.66797H0.717773C0.717773 9.02539 0.986654 8.49902 1.52441 8.08887C2.06217 7.67871 2.73438 7.47363 3.54102 7.47363C4.4069 7.47363 5.08138 7.66048 5.56445 8.03418C6.04753 8.40332 6.28906 8.93197 6.28906 9.62012C6.28906 9.9528 6.1888 10.2581 5.98828 10.5361C5.78776 10.8141 5.50293 11.0352 5.13379 11.1992C5.99512 11.4909 6.42578 12.0651 6.42578 12.9219C6.42578 13.6009 6.16374 14.1387 5.63965 14.5352C5.11556 14.9316 4.41602 15.1299 3.54102 15.1299C2.6888 15.1299 1.9847 14.9225 1.42871 14.5078C0.877279 14.0885 0.601562 13.5234 0.601562 12.8125H1.85938C1.85938 13.1725 2.01888 13.4824 2.33789 13.7422C2.66146 13.9974 3.0625 14.125 3.54102 14.125C4.02409 14.125 4.41374 14.0133 4.70996 13.79C5.00618 13.5667 5.1543 13.2773 5.1543 12.9219C5.1543 12.5072 5.02897 12.2109 4.77832 12.0332C4.53223 11.8509 4.14714 11.7598 3.62305 11.7598H2.3584V10.6934H3.73242C4.59375 10.6706 5.02441 10.3151 5.02441 9.62695ZM12.6328 15C12.5599 14.8542 12.5007 14.5944 12.4551 14.2207C11.8672 14.8314 11.1654 15.1367 10.3496 15.1367C9.62044 15.1367 9.02116 14.9316 8.55176 14.5215C8.08691 14.1068 7.85449 13.5827 7.85449 12.9492C7.85449 12.179 8.14616 11.582 8.72949 11.1582C9.31738 10.7298 10.1423 10.5156 11.2041 10.5156H12.4346V9.93457C12.4346 9.49251 12.3024 9.1416 12.0381 8.88184C11.7738 8.61751 11.3841 8.48535 10.8691 8.48535C10.418 8.48535 10.0397 8.59928 9.73438 8.82715C9.42904 9.05501 9.27637 9.33073 9.27637 9.6543H8.00488C8.00488 9.28516 8.13477 8.92969 8.39453 8.58789C8.65885 8.24154 9.01432 7.9681 9.46094 7.76758C9.91211 7.56706 10.4066 7.4668 10.9443 7.4668C11.7965 7.4668 12.4642 7.68099 12.9473 8.10938C13.4303 8.5332 13.681 9.11882 13.6992 9.86621V13.2705C13.6992 13.9495 13.7858 14.4896 13.959 14.8906V15H12.6328ZM10.5342 14.0361C10.9307 14.0361 11.3066 13.9336 11.6621 13.7285C12.0176 13.5234 12.2751 13.2568 12.4346 12.9287V11.4111H11.4434C9.89388 11.4111 9.11914 11.8646 9.11914 12.7715C9.11914 13.168 9.2513 13.4779 9.51562 13.7012C9.77995 13.9245 10.1195 14.0361 10.5342 14.0361ZM17.9854 11.8486H17.0625V15H15.791V7.60352H17.0625V10.7344H17.8896L20.3779 7.60352H21.9092L18.9834 11.1582L22.1553 15H20.5488L17.9854 11.8486ZM29.4902 11.3838C29.4902 12.5094 29.2327 13.4163 28.7178 14.1045C28.2028 14.7926 27.5055 15.1367 26.626 15.1367C25.7282 15.1367 25.0218 14.8519 24.5068 14.2822V17.8438H23.2422V7.60352H24.3975L24.459 8.42383C24.974 7.78581 25.6895 7.4668 26.6055 7.4668C27.4941 7.4668 28.196 7.80176 28.7109 8.47168C29.2305 9.1416 29.4902 10.0736 29.4902 11.2676V11.3838ZM28.2256 11.2402C28.2256 10.4062 28.0479 9.74772 27.6924 9.26465C27.3369 8.78158 26.8493 8.54004 26.2295 8.54004C25.4639 8.54004 24.8896 8.87956 24.5068 9.55859V13.0928C24.8851 13.7673 25.4639 14.1045 26.2432 14.1045C26.8493 14.1045 27.3301 13.8652 27.6855 13.3867C28.0456 12.9036 28.2256 12.1882 28.2256 11.2402ZM32.4844 10.1533H34.4053C35.2438 10.1624 35.9069 10.3812 36.3945 10.8096C36.8822 11.238 37.126 11.819 37.126 12.5527C37.126 13.291 36.8753 13.8835 36.374 14.3301C35.8727 14.7767 35.1982 15 34.3506 15H31.2197V7.60352H32.4844V10.1533ZM39.7646 15H38.4932V7.60352H39.7646V15ZM32.4844 11.1855V13.9678H34.3643C34.8382 13.9678 35.2051 13.847 35.4648 13.6055C35.7246 13.3594 35.8545 13.0244 35.8545 12.6006C35.8545 12.1904 35.7269 11.8555 35.4717 11.5957C35.221 11.3314 34.8678 11.1947 34.4121 11.1855H32.4844ZM47.4688 8.62891H44.9873V15H43.7227V8.62891H41.2891V7.60352H47.4688V8.62891ZM50.0801 10.1533H52.001C52.8395 10.1624 53.5026 10.3812 53.9902 10.8096C54.4779 11.238 54.7217 11.819 54.7217 12.5527C54.7217 13.291 54.471 13.8835 53.9697 14.3301C53.4684 14.7767 52.7939 15 51.9463 15H48.8154V7.60352H50.0801V10.1533ZM50.0801 11.1855V13.9678H51.96C52.4339 13.9678 52.8008 13.847 53.0605 13.6055C53.3203 13.3594 53.4502 13.0244 53.4502 12.6006C53.4502 12.1904 53.3226 11.8555 53.0674 11.5957C52.8167 11.3314 52.4635 11.1947 52.0078 11.1855H50.0801Z" fill="black"/>
<path d="M66 9C65.4477 9 65 9.44771 65 10C65 10.5523 65.4477 11 66 11V9ZM88 10L88.7071 10.7071L89.4142 10L88.7071 9.29289L88 10ZM79.7071 0.292893C79.3166 -0.0976311 78.6834 -0.0976311 78.2929 0.292893C77.9024 0.683417 77.9024 1.31658 78.2929 1.70711L79.7071 0.292893ZM78.2929 18.2929C77.9024 18.6834 77.9024 19.3166 78.2929 19.7071C78.6834 20.0976 79.3166 20.0976 79.7071 19.7071L78.2929 18.2929ZM66 11H88V9H66V11ZM78.2929 1.70711L87.2929 10.7071L88.7071 9.29289L79.7071 0.292893L78.2929 1.70711ZM87.2929 9.29289L78.2929 18.2929L79.7071 19.7071L88.7071 10.7071L87.2929 9.29289Z" fill="black"/>
</svg>
